<?xml version="1.0" encoding="UTF-8" standalone="no"?>
<!-- Created with Inkscape (http://www.inkscape.org/) -->

<svg
   xmlns:dc="http://purl.org/dc/elements/1.1/"
   xmlns:cc="http://creativecommons.org/ns#"
   xmlns:rdf="http://www.w3.org/1999/02/22-rdf-syntax-ns#"
   xmlns:svg="http://www.w3.org/2000/svg"
   xmlns="http://www.w3.org/2000/svg"
   xmlns:sodipodi="http://sodipodi.sourceforge.net/DTD/sodipodi-0.dtd"
   xmlns:inkscape="http://www.inkscape.org/namespaces/inkscape"
   width="63mm"
   height="7mm"
   viewBox="0 0 63.000001 6.9999998"
   version="1.1"
   id="svg9947"
   sodipodi:docname="BV_Vert.svg"
   inkscape:export-filename="C:\Users\Romain\Google Drive\Site_Blette Villette_Html\0.1_Ressources\0.0_Charte Graphique\BV_Vert.png"
   inkscape:export-xdpi="150"
   inkscape:export-ydpi="150"
   inkscape:version="0.92.1 r15371">
  <defs
     id="defs9941" />
  <sodipodi:namedview
     id="base"
     pagecolor="#ffffff"
     bordercolor="#666666"
     borderopacity="1.0"
     inkscape:pageopacity="0.0"
     inkscape:pageshadow="2"
     inkscape:zoom="2.8"
     inkscape:cx="90.552426"
     inkscape:cy="72.310156"
     inkscape:document-units="mm"
     inkscape:current-layer="g11122"
     showgrid="false"
     fit-margin-top="0"
     fit-margin-left="0"
     fit-margin-right="0"
     fit-margin-bottom="0"
     inkscape:window-width="2400"
     inkscape:window-height="1421"
     inkscape:window-x="-9"
     inkscape:window-y="-9"
     inkscape:window-maximized="1" />
  <metadata
     id="metadata9944">
    <rdf:RDF>
      <cc:Work
         rdf:about="">
        <dc:format>image/svg+xml</dc:format>
        <dc:type
           rdf:resource="http://purl.org/dc/dcmitype/StillImage" />
        <dc:title></dc:title>
      </cc:Work>
    </rdf:RDF>
  </metadata>
  <g
     inkscape:label="Calque 1"
     inkscape:groupmode="layer"
     id="layer1"
     transform="translate(52.06893,-182.79639)">
    <g
       transform="matrix(0.26458333,0,0,0.26458333,-64.946429,150.75595)"
       id="g11126">
      <rect
         style="opacity:1;fill:none;fill-opacity:1;stroke:none;stroke-width:0.09448819;stroke-linecap:butt;stroke-linejoin:round;stroke-miterlimit:4;stroke-dasharray:none;stroke-dashoffset:0;stroke-opacity:1"
         id="rect11076"
         width="302.36221"
         height="151.18111"
         x="-6.9388939e-018"
         y="-3.2725609e-006" />
      <g
         transform="translate(56.45669,3.5714186)"
         id="g11122">
        <g
           transform="matrix(1.0219464,0,0,1.0220175,-21.420402,-15.009448)"
           id="g11104"
           style="font-style:normal;font-variant:normal;font-weight:normal;font-stretch:normal;font-size:40px;line-height:125%;font-family:Calibri;-inkscape-font-specification:Calibri;font-variant-ligatures:normal;font-variant-caps:normal;font-variant-numeric:normal;font-feature-settings:normal;text-align:start;letter-spacing:0px;word-spacing:0px;writing-mode:lr-tb;text-anchor:start;fill:#009100;fill-opacity:1;stroke:#000000;stroke-width:0.09245583;stroke-linecap:butt;stroke-linejoin:miter;stroke-miterlimit:4;stroke-dasharray:none;stroke-opacity:1"
           aria-label="Blettes">
          <path
             inkscape:connector-curvature="0"
             id="path11092"
             style="font-style:normal;font-variant:normal;font-weight:bold;font-stretch:normal;font-size:37.33333206px;font-family:Calibri;-inkscape-font-specification:'Calibri Bold';text-align:center;text-anchor:middle;fill:#aabe46;fill-opacity:1;stroke:#000000;stroke-width:0.09245583;stroke-miterlimit:4;stroke-dasharray:none;stroke-opacity:1"
             d="m 30.468728,148.02881 q 0,1.25782 -0.346354,2.27865 -0.346354,1.02083 -0.966146,1.80469 -0.601562,0.78385 -1.458333,1.34896 -0.838542,0.5651 -1.859375,0.92968 -1.020833,0.36459 -2.1875,0.54688 -1.148437,0.16406 -2.570312,0.16406 h -6.270833 q -0.601563,0 -1.020834,-0.34635 Q 13.388,154.39079 13.388,153.58871 v -20.5625 q 0,-0.80208 0.401041,-1.14844 0.419271,-0.36458 1.020834,-0.36458 h 5.924479 q 2.16927,0 3.664062,0.36458 1.513021,0.36459 2.533854,1.11198 1.039063,0.72917 1.585937,1.85938 0.546875,1.13021 0.546875,2.66146 0,0.85677 -0.21875,1.62239 -0.21875,0.7474 -0.63802,1.36719 -0.419271,0.61979 -1.039063,1.09375 -0.601562,0.47396 -1.385416,0.76562 1.002604,0.18229 1.841145,0.63802 0.856771,0.45573 1.476563,1.1849 0.638021,0.71094 1.002604,1.67708 0.364583,0.96615 0.364583,2.16927 z m -6.197916,-9.93489 q 0,-0.71094 -0.21875,-1.27604 -0.21875,-0.56511 -0.65625,-0.92969 -0.4375,-0.38281 -1.111979,-0.58333 -0.65625,-0.20052 -1.768229,-0.20052 h -2.424479 v 6.12499 h 2.679687 q 1.039062,0 1.658854,-0.23697 0.619792,-0.25521 1.020833,-0.67448 0.419271,-0.4375 0.619792,-1.00261 0.200521,-0.58333 0.200521,-1.22135 z m 1.221354,10.09896 q 0,-0.82032 -0.273438,-1.45834 -0.273437,-0.65625 -0.802083,-1.09375 -0.528646,-0.4375 -1.348958,-0.67448 -0.820313,-0.23698 -2.132813,-0.23698 h -2.843749 v 6.70834 h 3.463541 q 1.002604,0 1.677083,-0.20052 0.692709,-0.21875 1.184896,-0.61979 0.510417,-0.41928 0.783854,-1.02084 0.291667,-0.61979 0.291667,-1.40364 z" />
          <path
             inkscape:connector-curvature="0"
             id="path11094"
             style="font-style:normal;font-variant:normal;font-weight:bold;font-stretch:normal;font-size:37.33333206px;font-family:Calibri;-inkscape-font-specification:'Calibri Bold';text-align:center;text-anchor:middle;fill:#aabe46;fill-opacity:1;stroke:#000000;stroke-width:0.09245583;stroke-miterlimit:4;stroke-dasharray:none;stroke-opacity:1"
             d="m 38.635394,154.48194 q 0,0.18229 -0.109375,0.32812 -0.109375,0.12761 -0.382812,0.21875 -0.255209,0.0911 -0.692709,0.12761 -0.4375,0.0547 -1.111979,0.0547 -0.674479,0 -1.111979,-0.0547 -0.4375,-0.0365 -0.710937,-0.12761 -0.255209,-0.0911 -0.364584,-0.21875 -0.109375,-0.14583 -0.109375,-0.32812 v -23.97135 q 0,-0.1823 0.109375,-0.32813 0.109375,-0.14583 0.364584,-0.23698 0.273437,-0.10937 0.710937,-0.16406 0.4375,-0.0547 1.111979,-0.0547 0.674479,0 1.111979,0.0547 0.4375,0.0547 0.692709,0.16406 0.273437,0.0911 0.382812,0.23698 0.109375,0.14583 0.109375,0.32813 z" />
          <path
             inkscape:connector-curvature="0"
             id="path11096"
             style="font-style:normal;font-variant:normal;font-weight:bold;font-stretch:normal;font-size:37.33333206px;font-family:Calibri;-inkscape-font-specification:'Calibri Bold';text-align:center;text-anchor:middle;fill:#aabe46;fill-opacity:1;stroke:#000000;stroke-width:0.09245583;stroke-miterlimit:4;stroke-dasharray:none;stroke-opacity:1"
             d="m 58.249977,145.87777 q 0,0.83854 -0.382812,1.23959 -0.364584,0.40104 -1.020834,0.40104 h -9.898437 q 0,1.03906 0.236979,1.89583 0.255209,0.83854 0.783854,1.4401 0.546875,0.58334 1.385417,0.89323 0.856771,0.3099 2.041667,0.3099 1.203125,0 2.114583,-0.16406 0.911458,-0.18229 1.567708,-0.38282 0.674479,-0.21875 1.111979,-0.38281 0.4375,-0.18229 0.710938,-0.18229 0.164062,0 0.273437,0.0729 0.109375,0.0547 0.182292,0.21875 0.07292,0.16406 0.09115,0.47396 0.03646,0.29166 0.03646,0.74739 0,0.40104 -0.01823,0.69271 -0.01823,0.27344 -0.05469,0.47396 -0.03646,0.20052 -0.109375,0.34635 -0.07292,0.12761 -0.20052,0.25521 -0.109375,0.1276 -0.638021,0.34635 -0.528646,0.21875 -1.348958,0.4375 -0.820313,0.20053 -1.877605,0.34636 -1.057291,0.16406 -2.260416,0.16406 -2.169271,0 -3.809896,-0.54687 -1.622396,-0.54688 -2.716146,-1.65886 -1.09375,-1.11198 -1.640625,-2.80729 -0.528645,-1.69531 -0.528645,-3.97396 0,-2.16927 0.565104,-3.90104 0.565104,-1.75 1.640625,-2.95312 1.07552,-1.22136 2.60677,-1.85938 1.54948,-0.63802 3.481771,-0.63802 2.041667,0 3.481771,0.60156 1.458333,0.60157 2.388021,1.67709 0.929687,1.05729 1.367187,2.51562 0.4375,1.45833 0.4375,3.17188 z m -4.447916,-1.3125 q 0.05469,-1.93229 -0.783855,-3.02604 -0.820312,-1.11198 -2.552083,-1.11198 -0.875,0 -1.53125,0.32813 -0.638021,0.32812 -1.075521,0.89323 -0.41927,0.54687 -0.65625,1.3125 -0.21875,0.74739 -0.255208,1.60416 z" />
          <path
             inkscape:connector-curvature="0"
             id="path11098"
             style="font-style:normal;font-variant:normal;font-weight:bold;font-stretch:normal;font-size:37.33333206px;font-family:Calibri;-inkscape-font-specification:'Calibri Bold';text-align:center;text-anchor:middle;fill:#aabe46;fill-opacity:1;stroke:#000000;stroke-width:0.09245583;stroke-miterlimit:4;stroke-dasharray:none;stroke-opacity:1"
             d="m 83.005185,152.87777 q 0,0.80209 -0.109375,1.22136 -0.09115,0.41927 -0.273437,0.60156 -0.164063,0.18229 -0.492188,0.30989 -0.309896,0.12761 -0.729166,0.23698 -0.419271,0.10938 -0.929688,0.16407 -0.492187,0.0547 -0.984375,0.0547 -1.385416,0 -2.388021,-0.34635 -1.002604,-0.34635 -1.658854,-1.05729 -0.65625,-0.72917 -0.966146,-1.82292 -0.309895,-1.09375 -0.309895,-2.58854 v -8.33073 h -6.981771 v 7.63802 q 0,1.33073 0.419271,2.00521 0.419271,0.65625 1.494791,0.65625 0.364584,0 0.65625,-0.0547 0.291667,-0.0729 0.510417,-0.14583 0.236979,-0.0911 0.382813,-0.14583 0.164062,-0.0729 0.291666,-0.0729 0.109375,0 0.200521,0.0729 0.109375,0.0547 0.164063,0.2552 0.05469,0.1823 0.09115,0.51042 0.05469,0.32813 0.05469,0.83854 0,0.51042 -0.03646,0.82031 -0.01823,0.29167 -0.07292,0.49219 -0.03646,0.20052 -0.109375,0.34636 -0.05469,0.1276 -0.200521,0.2552 -0.145833,0.10938 -0.455729,0.23698 -0.309896,0.12761 -0.729167,0.21875 -0.419271,0.10938 -0.929687,0.16407 -0.492188,0.0547 -1.002604,0.0547 -1.367188,0 -2.369792,-0.34635 -1.002604,-0.34635 -1.658854,-1.05729 -0.65625,-0.72917 -0.966146,-1.82292 -0.309896,-1.09375 -0.309896,-2.58854 v -8.33073 h -1.95052 q -0.346355,0 -0.528646,-0.41927 -0.182292,-0.4375 -0.182292,-1.4401 0,-0.52865 0.03646,-0.89323 0.05469,-0.36459 0.145834,-0.56511 0.09115,-0.21875 0.21875,-0.30989 0.145833,-0.0911 0.328125,-0.0911 h 1.932291 v -3.6276 q 0,-0.18229 0.09115,-0.32813 0.109375,-0.14583 0.364584,-0.23698 0.273437,-0.10937 0.710937,-0.14583 0.455729,-0.0547 1.111979,-0.0547 0.674479,0 1.111979,0.0547 0.455729,0.0365 0.710938,0.14583 0.255208,0.0911 0.364583,0.23698 0.109375,0.14584 0.109375,0.32813 v 3.6276 h 6.981771 v -4.5026 q 0,-0.18229 0.09114,-0.32813 0.109375,-0.14583 0.364584,-0.23698 0.273437,-0.0911 0.710937,-0.14583 0.455729,-0.0547 1.111979,-0.0547 0.67448,0 1.11198,0.0547 0.455729,0.0547 0.710937,0.14583 0.255208,0.0911 0.364583,0.23698 0.109375,0.14584 0.109375,0.32813 v 4.5026 h 3.536459 q 0.182291,0 0.309895,0.0911 0.127605,0.0911 0.21875,0.30989 0.109375,0.20052 0.145834,0.56511 0.05469,0.36458 0.05469,0.89323 0,1.0026 -0.200521,1.4401 -0.182291,0.41927 -0.510416,0.41927 H 78.73956 v 7.63802 q 0,1.33073 0.401042,2.00521 0.419271,0.65625 1.513021,0.65625 0.364583,0 0.65625,-0.0547 0.291666,-0.0729 0.510416,-0.14583 0.21875,-0.0911 0.382813,-0.14583 0.164062,-0.0729 0.291667,-0.0729 0.109375,0 0.20052,0.0729 0.09115,0.0547 0.145834,0.2552 0.07292,0.1823 0.109375,0.51042 0.05469,0.32813 0.05469,0.83854 z" />
          <path
             inkscape:connector-curvature="0"
             id="path11100"
             style="font-style:normal;font-variant:normal;font-weight:bold;font-stretch:normal;font-size:37.33333206px;font-family:Calibri;-inkscape-font-specification:'Calibri Bold';text-align:center;text-anchor:middle;fill:#aabe46;fill-opacity:1;stroke:#000000;stroke-width:0.09245583;stroke-miterlimit:4;stroke-dasharray:none;stroke-opacity:1"
             d="m 100.90622,145.87777 q 0,0.83854 -0.38281,1.23959 -0.36458,0.40104 -1.020833,0.40104 H 89.60414 q 0,1.03906 0.236979,1.89583 0.255209,0.83854 0.783855,1.4401 0.546875,0.58334 1.385416,0.89323 0.856771,0.3099 2.041667,0.3099 1.203125,0 2.114583,-0.16406 0.911458,-0.18229 1.567708,-0.38282 0.67448,-0.21875 1.111979,-0.38281 0.4375,-0.18229 0.710938,-0.18229 0.164062,0 0.273437,0.0729 0.109375,0.0547 0.182288,0.21875 0.0729,0.16406 0.0911,0.47396 0.0365,0.29166 0.0365,0.74739 0,0.40104 -0.0182,0.69271 -0.0182,0.27344 -0.0547,0.47396 -0.0365,0.20052 -0.109373,0.34635 -0.07292,0.12761 -0.200521,0.25521 -0.109375,0.1276 -0.638021,0.34635 -0.528646,0.21875 -1.348958,0.4375 -0.820313,0.20053 -1.877604,0.34636 -1.057292,0.16406 -2.260417,0.16406 -2.169271,0 -3.809896,-0.54687 -1.622395,-0.54688 -2.716145,-1.65886 -1.09375,-1.11198 -1.640625,-2.80729 -0.528646,-1.69531 -0.528646,-3.97396 0,-2.16927 0.565104,-3.90104 0.565104,-1.75 1.640625,-2.95312 1.075521,-1.22136 2.606771,-1.85938 1.549479,-0.63802 3.48177,-0.63802 2.041667,0 3.481771,0.60156 1.458333,0.60157 2.388021,1.67709 0.929684,1.05729 1.367184,2.51562 0.4375,1.45833 0.4375,3.17188 z m -4.447913,-1.3125 q 0.05469,-1.93229 -0.783854,-3.02604 -0.820313,-1.11198 -2.552084,-1.11198 -0.875,0 -1.53125,0.32813 -0.63802,0.32812 -1.07552,0.89323 -0.419271,0.54687 -0.65625,1.3125 -0.21875,0.74739 -0.255209,1.60416 z" />
          <path
             inkscape:connector-curvature="0"
             id="path11102"
             style="font-style:normal;font-variant:normal;font-weight:bold;font-stretch:normal;font-size:37.33333206px;font-family:Calibri;-inkscape-font-specification:'Calibri Bold';text-align:center;text-anchor:middle;fill:#aabe46;fill-opacity:1;stroke:#000000;stroke-width:0.09245583;stroke-miterlimit:4;stroke-dasharray:none;stroke-opacity:1"
             d="m 116.14581,149.88819 q 0,1.38542 -0.52865,2.44271 -0.51042,1.05729 -1.45833,1.76823 -0.94792,0.71093 -2.24219,1.05729 -1.29427,0.36458 -2.80729,0.36458 -0.91146,0 -1.75,-0.14583 -0.82031,-0.12761 -1.47656,-0.32813 -0.65625,-0.21875 -1.09375,-0.4375 -0.4375,-0.21875 -0.63802,-0.40104 -0.20053,-0.20052 -0.3099,-0.60156 -0.10938,-0.41927 -0.10938,-1.22136 0,-0.52864 0.0365,-0.83854 0.0365,-0.32812 0.10938,-0.51041 0.0729,-0.20052 0.18229,-0.25521 0.10937,-0.0729 0.27344,-0.0729 0.20052,0 0.58333,0.23698 0.40104,0.21875 0.98438,0.49219 0.58333,0.27344 1.34895,0.51041 0.78386,0.23698 1.76823,0.23698 0.61979,0 1.09375,-0.1276 0.49219,-0.1276 0.83854,-0.36458 0.36459,-0.23698 0.54688,-0.60157 0.18229,-0.36458 0.18229,-0.83854 0,-0.54687 -0.34635,-0.92969 -0.32813,-0.40104 -0.89323,-0.6927 -0.54688,-0.29167 -1.25781,-0.54688 -0.69271,-0.25521 -1.44011,-0.5651 -0.72917,-0.3099 -1.4401,-0.71094 -0.69271,-0.40104 -1.25782,-0.98438 -0.54687,-0.58333 -0.89322,-1.40364 -0.32813,-0.82031 -0.32813,-1.96875 0,-1.16667 0.45573,-2.13281 0.45573,-0.98438 1.3125,-1.67709 0.85677,-0.6927 2.07812,-1.07552 1.23959,-0.38281 2.77084,-0.38281 0.76562,0 1.47656,0.10938 0.72917,0.10937 1.3125,0.27343 0.58333,0.16407 0.98438,0.36459 0.40104,0.18229 0.5651,0.32812 0.18229,0.12761 0.25521,0.27344 0.0729,0.1276 0.10937,0.32812 0.0365,0.1823 0.0547,0.47396 0.0365,0.27344 0.0365,0.69271 0,0.49219 -0.0365,0.80208 -0.0182,0.3099 -0.0911,0.49219 -0.0547,0.18229 -0.16406,0.25521 -0.10937,0.0547 -0.25521,0.0547 -0.16406,0 -0.51041,-0.1823 -0.34636,-0.20052 -0.875,-0.41927 -0.51042,-0.21875 -1.20313,-0.40104 -0.67448,-0.20052 -1.54948,-0.20052 -0.61979,0 -1.07552,0.12761 -0.45573,0.1276 -0.74739,0.36458 -0.29167,0.23698 -0.4375,0.5651 -0.14584,0.3099 -0.14584,0.67448 0,0.56511 0.34636,0.94792 0.34635,0.38281 0.91146,0.67448 0.5651,0.29166 1.27604,0.54687 0.72916,0.25521 1.45833,0.56511 0.7474,0.29166 1.45833,0.69271 0.72917,0.40104 1.29427,0.98437 0.56511,0.58333 0.91146,1.40365 0.34636,0.80208 0.34636,1.91406 z" />
        </g>
        <g
           transform="matrix(1.0219469,0,0,1.0220175,103.44129,-58.56216)"
           id="g11120"
           style="font-style:normal;font-variant:normal;font-weight:normal;font-stretch:normal;font-size:40px;line-height:125%;font-family:Calibri;-inkscape-font-specification:Calibri;font-variant-ligatures:normal;font-variant-caps:normal;font-variant-numeric:normal;font-feature-settings:normal;text-align:start;letter-spacing:0px;word-spacing:0px;writing-mode:lr-tb;text-anchor:start;fill:#009100;fill-opacity:1;stroke:#000000;stroke-width:0.09245583;stroke-linecap:butt;stroke-linejoin:miter;stroke-miterlimit:4;stroke-dasharray:none;stroke-opacity:1"
           aria-label="Villette">
          <path
             inkscape:connector-curvature="0"
             id="path11106"
             style="font-style:normal;font-variant:normal;font-weight:bold;font-stretch:normal;font-size:37.33333206px;font-family:Calibri;-inkscape-font-specification:'Calibri Bold';text-align:center;text-anchor:middle;fill:#aabe46;fill-opacity:1;stroke:#000000;stroke-width:0.09245583;stroke-miterlimit:4;stroke-dasharray:none;stroke-opacity:1"
             d="m 28.791686,196.87766 q -0.09115,0.3099 -0.236979,0.51042 -0.145834,0.18229 -0.473959,0.29166 -0.328125,0.0911 -0.893229,0.10938 -0.565104,0.0365 -1.476562,0.0365 -0.729167,0 -1.257813,-0.0182 -0.510416,0 -0.875,-0.0365 -0.364583,-0.0365 -0.601562,-0.10938 -0.21875,-0.0729 -0.382813,-0.18229 -0.145833,-0.10937 -0.236979,-0.25521 -0.07292,-0.16406 -0.145833,-0.40104 l -7.018229,-20.90885 q -0.21875,-0.65625 -0.273437,-1.03906 -0.03646,-0.38282 0.182291,-0.56511 0.236979,-0.20052 0.783854,-0.23698 0.546875,-0.0547 1.53125,-0.0547 0.838542,0 1.3125,0.0365 0.473959,0.0365 0.729167,0.12761 0.255208,0.0911 0.346354,0.27344 0.109375,0.18229 0.200521,0.45573 l 5.742187,18.1927 h 0.01823 l 5.632813,-18.10156 q 0.07292,-0.30989 0.182291,-0.49219 0.109375,-0.20052 0.364584,-0.30989 0.273437,-0.10938 0.765625,-0.14584 0.492187,-0.0365 1.348958,-0.0365 0.838541,0 1.294271,0.0547 0.473958,0.0547 0.63802,0.27344 0.182292,0.20052 0.109375,0.58333 -0.05469,0.38282 -0.273437,1.02084 z" />
          <path
             inkscape:connector-curvature="0"
             id="path11108"
             style="font-style:normal;font-variant:normal;font-weight:bold;font-stretch:normal;font-size:37.33333206px;font-family:Calibri;-inkscape-font-specification:'Calibri Bold';text-align:center;text-anchor:middle;fill:#aabe46;fill-opacity:1;stroke:#000000;stroke-width:0.09245583;stroke-miterlimit:4;stroke-dasharray:none;stroke-opacity:1"
             d="m 43.466165,197.09641 q 0,0.18229 -0.109375,0.32813 -0.109375,0.1276 -0.382812,0.21875 -0.255209,0.0911 -0.692708,0.1276 -0.4375,0.0547 -1.11198,0.0547 -0.674479,0 -1.111979,-0.0547 -0.4375,-0.0365 -0.710937,-0.1276 -0.255209,-0.0911 -0.364584,-0.21875 -0.109375,-0.14584 -0.109375,-0.32813 v -16.22396 q 0,-0.18229 0.109375,-0.30989 0.109375,-0.14584 0.364584,-0.23698 0.273437,-0.10938 0.710937,-0.16407 0.4375,-0.0547 1.111979,-0.0547 0.67448,0 1.11198,0.0547 0.437499,0.0547 0.692708,0.16407 0.273437,0.0911 0.382812,0.23698 0.109375,0.1276 0.109375,0.30989 z m 0.346354,-21.76562 q 0,1.38541 -0.565104,1.91406 -0.565104,0.52864 -2.096354,0.52864 -1.549479,0 -2.096354,-0.51041 -0.528646,-0.51042 -0.528646,-1.84115 0,-1.38541 0.546875,-1.91406 0.565104,-0.54688 2.114584,-0.54688 1.531249,0 2.078124,0.52865 0.546875,0.51042 0.546875,1.84115 z" />
          <path
             inkscape:connector-curvature="0"
             id="path11110"
             style="font-style:normal;font-variant:normal;font-weight:bold;font-stretch:normal;font-size:37.33333206px;font-family:Calibri;-inkscape-font-specification:'Calibri Bold';text-align:center;text-anchor:middle;fill:#aabe46;fill-opacity:1;stroke:#000000;stroke-width:0.09245583;stroke-miterlimit:4;stroke-dasharray:none;stroke-opacity:1"
             d="m 52.653665,197.09641 q 0,0.18229 -0.109375,0.32813 -0.109375,0.1276 -0.382812,0.21875 -0.255209,0.0911 -0.692708,0.1276 -0.4375,0.0547 -1.11198,0.0547 -0.674479,0 -1.111979,-0.0547 -0.4375,-0.0365 -0.710937,-0.1276 -0.255209,-0.0911 -0.364584,-0.21875 -0.109375,-0.14584 -0.109375,-0.32813 v -23.97135 q 0,-0.18229 0.109375,-0.32813 0.109375,-0.14583 0.364584,-0.23698 0.273437,-0.10937 0.710937,-0.16406 0.4375,-0.0547 1.111979,-0.0547 0.67448,0 1.11198,0.0547 0.437499,0.0547 0.692708,0.16406 0.273437,0.0912 0.382812,0.23698 0.109375,0.14584 0.109375,0.32813 z" />
          <path
             inkscape:connector-curvature="0"
             id="path11112"
             style="font-style:normal;font-variant:normal;font-weight:bold;font-stretch:normal;font-size:37.33333206px;font-family:Calibri;-inkscape-font-specification:'Calibri Bold';text-align:center;text-anchor:middle;fill:#aabe46;fill-opacity:1;stroke:#000000;stroke-width:0.09245583;stroke-miterlimit:4;stroke-dasharray:none;stroke-opacity:1"
             d="m 61.841165,197.09641 q 0,0.18229 -0.109375,0.32813 -0.109375,0.1276 -0.382812,0.21875 -0.255209,0.0911 -0.692708,0.1276 -0.4375,0.0547 -1.11198,0.0547 -0.674479,0 -1.111979,-0.0547 -0.4375,-0.0365 -0.710937,-0.1276 -0.255209,-0.0911 -0.364584,-0.21875 -0.109375,-0.14584 -0.109375,-0.32813 v -23.97135 q 0,-0.18229 0.109375,-0.32813 0.109375,-0.14583 0.364584,-0.23698 0.273437,-0.10937 0.710937,-0.16406 0.4375,-0.0547 1.111979,-0.0547 0.67448,0 1.11198,0.0547 0.437499,0.0547 0.692708,0.16406 0.273437,0.0912 0.382812,0.23698 0.109375,0.14584 0.109375,0.32813 z" />
          <path
             inkscape:connector-curvature="0"
             id="path11114"
             style="font-style:normal;font-variant:normal;font-weight:bold;font-stretch:normal;font-size:37.33333206px;font-family:Calibri;-inkscape-font-specification:'Calibri Bold';text-align:center;text-anchor:middle;fill:#aabe46;fill-opacity:1;stroke:#000000;stroke-width:0.09245583;stroke-miterlimit:4;stroke-dasharray:none;stroke-opacity:1"
             d="m 81.455748,188.49224 q 0,0.83855 -0.382812,1.23959 -0.364584,0.40104 -1.020834,0.40104 h -9.898437 q 0,1.03906 0.236979,1.89583 0.255209,0.83854 0.783855,1.44011 0.546875,0.58333 1.385416,0.89323 0.856771,0.30989 2.041667,0.30989 1.203125,0 2.114583,-0.16406 0.911458,-0.18229 1.567708,-0.38281 0.67448,-0.21875 1.11198,-0.38282 0.437499,-0.18229 0.710937,-0.18229 0.164062,0 0.273437,0.0729 0.109375,0.0547 0.182292,0.21875 0.07292,0.16406 0.09115,0.47396 0.03646,0.29166 0.03646,0.74739 0,0.40104 -0.01823,0.69271 -0.01823,0.27344 -0.05469,0.47396 -0.03646,0.20052 -0.109375,0.34635 -0.07292,0.12761 -0.200521,0.25521 -0.109375,0.12761 -0.638021,0.34636 -0.528646,0.21875 -1.348958,0.4375 -0.820313,0.20052 -1.877604,0.34635 -1.057292,0.16406 -2.260417,0.16406 -2.169271,0 -3.809896,-0.54687 -1.622395,-0.54688 -2.716145,-1.65886 -1.09375,-1.11198 -1.640625,-2.80729 -0.528646,-1.69531 -0.528646,-3.97396 0,-2.16927 0.565104,-3.90104 0.565104,-1.75 1.640625,-2.95312 1.075521,-1.22136 2.606771,-1.85938 1.549479,-0.63802 3.48177,-0.63802 2.041667,0 3.481771,0.60156 1.458333,0.60157 2.388021,1.67709 0.929687,1.05729 1.367187,2.51562 0.4375,1.45834 0.4375,3.17188 z m -4.447916,-1.3125 q 0.05469,-1.93229 -0.783854,-3.02604 -0.820313,-1.11198 -2.552084,-1.11198 -0.875,0 -1.53125,0.32813 -0.63802,0.32812 -1.07552,0.89323 -0.419271,0.54687 -0.65625,1.3125 -0.21875,0.74739 -0.255209,1.60416 z" />
          <path
             inkscape:connector-curvature="0"
             id="path11116"
             style="font-style:normal;font-variant:normal;font-weight:bold;font-stretch:normal;font-size:37.33333206px;font-family:Calibri;-inkscape-font-specification:'Calibri Bold';text-align:center;text-anchor:middle;fill:#aabe46;fill-opacity:1;stroke:#000000;stroke-width:0.09245583;stroke-miterlimit:4;stroke-dasharray:none;stroke-opacity:1"
             d="m 106.21096,195.49224 q 0,0.80209 -0.10938,1.22136 -0.0911,0.41927 -0.27344,0.60156 -0.16406,0.18229 -0.49218,0.3099 -0.3099,0.1276 -0.72917,0.23698 -0.41927,0.10937 -0.92969,0.16406 -0.49219,0.0547 -0.98437,0.0547 -1.38542,0 -2.38802,-0.34636 -1.002608,-0.34635 -1.658858,-1.05729 -0.656249,-0.72917 -0.966145,-1.82292 -0.309896,-1.09375 -0.309896,-2.58854 v -8.33073 H 90.38804 v 7.63802 q 0,1.33073 0.419271,2.00521 0.419271,0.65625 1.494792,0.65625 0.364583,0 0.65625,-0.0547 0.291666,-0.0729 0.510416,-0.14583 0.236979,-0.0911 0.382813,-0.14583 0.164062,-0.0729 0.291666,-0.0729 0.109375,0 0.200521,0.0729 0.109375,0.0547 0.164063,0.25521 0.05469,0.18229 0.09115,0.51041 0.05469,0.32813 0.05469,0.83854 0,0.51042 -0.03646,0.82032 -0.01823,0.29166 -0.07292,0.49218 -0.03646,0.20052 -0.109375,0.34636 -0.05469,0.1276 -0.200521,0.25521 -0.145833,0.10937 -0.455729,0.23698 -0.309896,0.1276 -0.729166,0.21875 -0.419271,0.10937 -0.929688,0.16406 -0.492187,0.0547 -1.002604,0.0547 -1.367188,0 -2.369792,-0.34636 -1.002604,-0.34635 -1.658854,-1.05729 -0.65625,-0.72917 -0.966146,-1.82292 -0.309895,-1.09375 -0.309895,-2.58854 v -8.33073 h -1.950521 q -0.346354,0 -0.528646,-0.41927 -0.182292,-0.4375 -0.182292,-1.4401 0,-0.52865 0.03646,-0.89323 0.05469,-0.36459 0.145833,-0.56511 0.09115,-0.21875 0.21875,-0.30989 0.145833,-0.0912 0.328125,-0.0912 h 1.932292 v -3.6276 q 0,-0.18229 0.09114,-0.32813 0.109375,-0.14583 0.364584,-0.23698 0.273437,-0.10937 0.710937,-0.14583 0.455729,-0.0547 1.111979,-0.0547 0.674479,0 1.111979,0.0547 0.45573,0.0365 0.710938,0.14583 0.255208,0.0911 0.364583,0.23698 0.109375,0.14584 0.109375,0.32813 v 3.6276 h 6.981771 v -4.5026 q 0,-0.18229 0.09115,-0.32813 0.109375,-0.14583 0.364583,-0.23698 0.273438,-0.0911 0.710937,-0.14583 0.45573,-0.0547 1.11198,-0.0547 0.674481,0 1.111981,0.0547 0.45572,0.0547 0.71093,0.14583 0.25521,0.0911 0.36459,0.23698 0.10937,0.14584 0.10937,0.32813 v 4.5026 h 3.53646 q 0.18229,0 0.3099,0.0912 0.1276,0.0911 0.21875,0.30989 0.10937,0.20052 0.14583,0.56511 0.0547,0.36458 0.0547,0.89323 0,1.0026 -0.20052,1.4401 -0.1823,0.41927 -0.51042,0.41927 h -3.55469 v 7.63802 q 0,1.33073 0.40104,2.00521 0.41927,0.65625 1.51302,0.65625 0.36459,0 0.65625,-0.0547 0.29167,-0.0729 0.51042,-0.14583 0.21875,-0.0911 0.38281,-0.14583 0.16407,-0.0729 0.29167,-0.0729 0.10937,0 0.20052,0.0729 0.0911,0.0547 0.14583,0.25521 0.0729,0.18229 0.10938,0.51041 0.0547,0.32813 0.0547,0.83854 z" />
          <path
             inkscape:connector-curvature="0"
             id="path11118"
             style="font-style:normal;font-variant:normal;font-weight:bold;font-stretch:normal;font-size:37.33333206px;font-family:Calibri;-inkscape-font-specification:'Calibri Bold';text-align:center;text-anchor:middle;fill:#aabe46;fill-opacity:1;stroke:#000000;stroke-width:0.09245583;stroke-miterlimit:4;stroke-dasharray:none;stroke-opacity:1"
             d="m 124.112,188.49224 q 0,0.83855 -0.38281,1.23959 -0.36459,0.40104 -1.02084,0.40104 h -9.89843 q 0,1.03906 0.23697,1.89583 0.25521,0.83854 0.78386,1.44011 0.54687,0.58333 1.38542,0.89323 0.85677,0.30989 2.04166,0.30989 1.20313,0 2.11459,-0.16406 0.91145,-0.18229 1.5677,-0.38281 0.67448,-0.21875 1.11198,-0.38282 0.4375,-0.18229 0.71094,-0.18229 0.16406,0 0.27344,0.0729 0.10937,0.0547 0.18229,0.21875 0.0729,0.16406 0.0911,0.47396 0.0365,0.29166 0.0365,0.74739 0,0.40104 -0.0182,0.69271 -0.0182,0.27344 -0.0547,0.47396 -0.0365,0.20052 -0.10938,0.34635 -0.0729,0.12761 -0.20052,0.25521 -0.10937,0.12761 -0.63802,0.34636 -0.52865,0.21875 -1.34896,0.4375 -0.82031,0.20052 -1.8776,0.34635 -1.05729,0.16406 -2.26042,0.16406 -2.16927,0 -3.80989,-0.54687 -1.6224,-0.54688 -2.71615,-1.65886 -1.09375,-1.11198 -1.64063,-2.80729 -0.52864,-1.69531 -0.52864,-3.97396 0,-2.16927 0.5651,-3.90104 0.56511,-1.75 1.64063,-2.95312 1.07552,-1.22136 2.60677,-1.85938 1.54948,-0.63802 3.48177,-0.63802 2.04167,0 3.48177,0.60156 1.45833,0.60157 2.38802,1.67709 0.92969,1.05729 1.36719,2.51562 0.4375,1.45834 0.4375,3.17188 z m -4.44792,-1.3125 q 0.0547,-1.93229 -0.78385,-3.02604 -0.82031,-1.11198 -2.55209,-1.11198 -0.875,0 -1.53125,0.32813 -0.63802,0.32812 -1.07552,0.89323 -0.41927,0.54687 -0.65625,1.3125 -0.21875,0.74739 -0.2552,1.60416 z" />
        </g>
      </g>
    </g>
  </g>
</svg>
