<?xml version="1.0" encoding="UTF-8" standalone="no"?>
<!-- Generator: Adobe Illustrator 19.1.0, SVG Export Plug-In . SVG Version: 6.00 Build 0)  -->

<svg
   xmlns:dc="http://purl.org/dc/elements/1.1/"
   xmlns:cc="http://creativecommons.org/ns#"
   xmlns:rdf="http://www.w3.org/1999/02/22-rdf-syntax-ns#"
   xmlns:svg="http://www.w3.org/2000/svg"
   xmlns="http://www.w3.org/2000/svg"
   xmlns:sodipodi="http://sodipodi.sourceforge.net/DTD/sodipodi-0.dtd"
   xmlns:inkscape="http://www.inkscape.org/namespaces/inkscape"
   version="1.1"
   id="Capa_1"
   x="0px"
   y="0px"
   viewBox="0 0 524.184 524.184"
   style="enable-background:new 0 0 524.184 524.184;"
   xml:space="preserve"
   sodipodi:docname="envelopeblack.svg"
   inkscape:version="0.92.2 (5c3e80d, 2017-08-06)"><metadata
     id="metadata71"><rdf:RDF><cc:Work
         rdf:about=""><dc:format>image/svg+xml</dc:format><dc:type
           rdf:resource="http://purl.org/dc/dcmitype/StillImage" /><dc:title></dc:title></cc:Work></rdf:RDF></metadata><defs
     id="defs69" /><sodipodi:namedview
     pagecolor="#ffffff"
     bordercolor="#666666"
     borderopacity="1"
     objecttolerance="10"
     gridtolerance="10"
     guidetolerance="10"
     inkscape:pageopacity="0"
     inkscape:pageshadow="2"
     inkscape:window-width="783"
     inkscape:window-height="480"
     id="namedview67"
     showgrid="false"
     inkscape:zoom="0.45022357"
     inkscape:cx="382.03242"
     inkscape:cy="262.09201"
     inkscape:window-x="0"
     inkscape:window-y="0"
     inkscape:window-maximized="0"
     inkscape:current-layer="g34" /><g
     id="g34"><path
       d="M483.606,75.31H40.542C18.34,75.31,0,93.65,0,115.852v292.48c0,22.201,18.34,40.542,40.542,40.542h443.064   c22.201,0,40.542-18.34,40.542-40.542v-292.48C525.113,93.65,506.772,75.31,483.606,75.31z M332.057,273.193L500.981,142.88   v261.591L332.057,273.193z M41.507,99.442h442.098c7.722,0,14.479,5.792,16.41,12.549L276.07,285.741   c-8.688,6.757-23.167,6.757-30.889,0L24.132,113.921C26.063,106.199,32.82,99.442,41.507,99.442z M24.132,404.471V144.81   l166.994,129.348L24.132,404.471z M41.507,426.672c-1.931,0-3.861,0-4.826-0.965l174.716-136.105l19.306,15.444   c8.688,6.757,19.306,9.653,29.924,9.653c10.618,0,22.201-2.896,29.924-9.653l21.236-16.41l176.646,137.07   c-1.931,0.965-2.896,0.965-4.826,0.965H41.507z"
       id="path2"
       style="fill:#000000" /><g
       id="g4" /><g
       id="g6" /><g
       id="g8" /><g
       id="g10" /><g
       id="g12" /><g
       id="g14" /><g
       id="g16" /><g
       id="g18" /><g
       id="g20" /><g
       id="g22" /><g
       id="g24" /><g
       id="g26" /><g
       id="g28" /><g
       id="g30" /><g
       id="g32" /></g><g
     id="g36" /><g
     id="g38" /><g
     id="g40" /><g
     id="g42" /><g
     id="g44" /><g
     id="g46" /><g
     id="g48" /><g
     id="g50" /><g
     id="g52" /><g
     id="g54" /><g
     id="g56" /><g
     id="g58" /><g
     id="g60" /><g
     id="g62" /><g
     id="g64" /></svg>