<?xml version="1.0" encoding="UTF-8" standalone="no"?>
<!-- Created with Inkscape (http://www.inkscape.org/) -->

<svg
   xmlns:dc="http://purl.org/dc/elements/1.1/"
   xmlns:cc="http://creativecommons.org/ns#"
   xmlns:rdf="http://www.w3.org/1999/02/22-rdf-syntax-ns#"
   xmlns:svg="http://www.w3.org/2000/svg"
   xmlns="http://www.w3.org/2000/svg"
   xmlns:sodipodi="http://sodipodi.sourceforge.net/DTD/sodipodi-0.dtd"
   xmlns:inkscape="http://www.inkscape.org/namespaces/inkscape"
   version="1.1"
   id="svg2"
   width="206.54955"
   height="206.54955"
   viewBox="0 0 206.54955 206.54955"
   sodipodi:docname="facebookwhite.svg"
   inkscape:version="0.92.2 (5c3e80d, 2017-08-06)">
  <metadata
     id="metadata8">
    <rdf:RDF>
      <cc:Work
         rdf:about="">
        <dc:format>image/svg+xml</dc:format>
        <dc:type
           rdf:resource="http://purl.org/dc/dcmitype/StillImage" />
        <dc:title></dc:title>
      </cc:Work>
    </rdf:RDF>
  </metadata>
  <defs
     id="defs6" />
  <sodipodi:namedview
     pagecolor="#ffffff"
     bordercolor="#666666"
     borderopacity="1"
     objecttolerance="10"
     gridtolerance="10"
     guidetolerance="10"
     inkscape:pageopacity="0"
     inkscape:pageshadow="2"
     inkscape:window-width="1920"
     inkscape:window-height="1051"
     id="namedview4"
     showgrid="false"
     fit-margin-top="0"
     fit-margin-left="0"
     fit-margin-right="0"
     fit-margin-bottom="0"
     inkscape:zoom="2.2250293"
     inkscape:cx="15.477788"
     inkscape:cy="106.49429"
     inkscape:window-x="-9"
     inkscape:window-y="-9"
     inkscape:window-maximized="1"
     inkscape:current-layer="svg2" />
  <path
     style="fill:#ffffff;stroke-width:1.33333337"
     d="M 10.89641,203.95718 C 6.53603,201.97814 4.57139,200.01352 2.59236,195.65313 0.10994,190.18366 0,186.26596 0,103.27477 0,20.283587 0.10995,16.365872 2.59236,10.896405 4.57139,6.536027 6.53603,4.571391 10.89641,2.592355 16.36587,0.10994 20.28359,0 103.27477,0 c 82.99119,0 86.90889,0.109947 92.37836,2.592355 4.36039,1.979036 6.32501,3.943672 8.30405,8.30405 2.48242,5.469467 2.59236,9.387182 2.59236,92.378365 0,82.99119 -0.11,86.90889 -2.59236,92.37836 -1.97904,4.36039 -3.94366,6.32501 -8.30405,8.30405 -5.46947,2.48242 -9.38717,2.59236 -92.37836,2.59236 -82.99118,0 -86.9089,-0.11 -92.37836,-2.59236 z m 99.04503,-48.01574 V 124.6081 l -12.333337,-0.38337 -12.33333,-0.38336 V 109.8914 95.941441 h 12.56336 12.563357 l 0.43664,-17.77836 c 0.42011,-17.10512 0.58945,-18.02525 4.47189,-24.298084 2.49523,-4.031541 6.52498,-8.05975 10.55899,-10.554982 6.26743,-3.876697 7.22213,-4.053485 24.29809,-4.4994 l 17.77434,-0.464153 v 12.660664 12.660665 l -11.2968,0.47016 c -15.79776,0.65748 -17.21026,2.17609 -17.83191,19.17171 l -0.46204,12.63178 h 14.30316 14.30316 l -0.83731,4.999999 c -0.46052,2.75 -1.22518,9.05 -1.69925,14 l -0.86195,9 h -12.4752 -12.4752 v 32 32 h 24.66667 24.66667 V 103.27477 18.6081 H 103.27477 18.6081 v 84.68418 84.68417 l 45.666673,-0.35084 45.666667,-0.35084 z"
     id="path817"
     inkscape:connector-curvature="0" />
</svg>
